<?xml version="1.0" encoding="utf-8"?>
<!-- Generator: Adobe Illustrator 16.0.0, SVG Export Plug-In . SVG Version: 6.00 Build 0)  -->
<!DOCTYPE svg PUBLIC "-//W3C//DTD SVG 1.1//EN" "http://www.w3.org/Graphics/SVG/1.1/DTD/svg11.dtd">
<svg version="1.1" xmlns="http://www.w3.org/2000/svg" xmlns:xlink="http://www.w3.org/1999/xlink" x="0px" y="0px" width="426px"
	 height="220px" viewBox="0 0 426 220" enable-background="new 0 0 426 220" xml:space="preserve">
<symbol  id="Novo_símbolo_5" viewBox="-17.345 -17.344 34.688 34.688">
	<g opacity="0.1">
		<path fill="#DAC080" d="M17.343,0c0-9.579-7.765-17.344-17.344-17.344C-9.58-17.344-17.345-9.579-17.345,0
			c0,9.579,7.765,17.344,17.344,17.344C9.578,17.344,17.343,9.579,17.343,0z"/>
	</g>
	<text transform="matrix(1 0 0 -1 -6.3193 -7.873)" fill="#FFE4DD" font-family="'MyriadPro-Regular'" font-size="24.224">#</text>
</symbol>
<symbol  id="Novo_símbolo_6" viewBox="-17.344 -17.344 34.688 34.688">
	<g opacity="0.1">
		<path fill="#DAC080" d="M17.344,0c0-9.579-7.765-17.344-17.344-17.344c-9.579,0-17.344,7.766-17.344,17.344
			c0,9.579,7.765,17.344,17.344,17.344C9.579,17.345,17.344,9.58,17.344,0z"/>
	</g>
	<g>
		<text transform="matrix(1 0 0 -1 -4.9561 -7.6367)" fill="#DAC080" font-family="'PancettaPro-SemiBold'" font-size="19.2124">#</text>
	</g>
</symbol>
<g id="azul">
</g>
<g id="sem_textura">
</g>
<g id="degrades" display="none">
</g>
<g id="cometa">
</g>
<g id="_x30_1">
</g>
<g id="_x30_1azul">
</g>
<g id="fundao">
</g>
<g id="atras_planeta">
</g>
<g id="planeta">
</g>
<g id="Camada_19">
</g>
<g id="crateras">
</g>
<g id="Camada_6">
</g>
<g id="aneis">
</g>
<g id="menina_face">
</g>
<g id="img_apagar" display="none">
</g>
<g id="texto_e_menina">
</g>
<g id="satelite">
</g>
<g id="cabelo">
</g>
<g id="texto">
</g>
<g id="texto_em_cima_planeta">
</g>
<g id="cometinhas">
</g>
<g id="margens">
</g>
<g id="anotacoes">
</g>
<g id="Camada_18">
	<g>
		<g>
			<path fill="#41C3C3" d="M173.108,119.539l-0.02,9.242c-0.01,3.559-1.161,6.193-3.863,7.509c2.692,1.385,3.835,3.97,3.825,7.53
				l-0.02,9.239c-0.015,4.021,1.529,5.978,6.068,5.989c0,0,0.284,0.572,0.284,1.546c-0.006,0.916-0.289,1.61-0.289,1.61
				c-7.523-0.02-10.441-3.354-10.432-9.152l0.028-9.247c0.005-3.955-1.541-5.97-6.07-5.981c0,0-0.288-0.572-0.288-1.547
				c0.004-0.922,0.298-1.61,0.298-1.61c4.529,0.015,6.085-1.935,6.095-5.897l0.023-9.242c0.01-5.797,2.948-9.119,10.471-9.1
				c0,0,0.279,0.63,0.279,1.611c-0.005,0.973-0.289,1.545-0.289,1.545C174.671,113.57,173.118,115.52,173.108,119.539"/>
			<path fill="#41C3C3" d="M191.438,119.393c0,0,1.38-0.346,2.895-0.338c1.442,0,2.822,0.351,2.822,0.351l-0.01,2.757
				c0,0,3.727-3.301,10.55-3.281c4.27,0.012,6.953,1.327,8.18,3.809c0,0,4.284-3.777,11.857-3.766
				c6.958,0.02,9.563,3.746,9.55,10.357l-0.062,24.247c0,0-1.371,0.339-2.896,0.332c-1.438-0.005-2.817-0.347-2.817-0.347
				l0.062-24.244c0.005-4.477-1.365-6.549-5.703-6.554c-5.717-0.02-8.198,2.731-8.688,3.347l-0.067,27.413
				c0,0-1.375,0.341-2.817,0.334c-1.443,0-2.823-0.347-2.823-0.347l0.059-24.246c0.014-4.477-1.361-6.539-5.771-6.554
				c-6.198-0.013-8.617,3.354-8.617,3.354l-0.067,27.414c0,0-1.447,0.332-2.827,0.332c-1.51-0.004-2.895-0.346-2.895-0.346
				L191.438,119.393z"/>
			<path fill="#41C3C3" d="M249.153,112.205c0-0.975,0.289-1.609,0.289-1.609c7.521,0.02,10.439,3.359,10.425,9.156l-0.02,9.242
				c-0.009,3.961,1.534,5.911,6.063,5.924c0,0,0.284,0.688,0.284,1.609c0,0.975-0.294,1.547-0.294,1.547
				c-4.529-0.008-6.082,2-6.092,5.957l-0.024,9.24c-0.01,5.797-2.952,9.119-10.468,9.107c0,0-0.289-0.695-0.289-1.611
				c0.01-0.974,0.299-1.551,0.299-1.551c4.529,0.005,6.083-1.938,6.097-5.957l0.02-9.242c0.005-3.559,1.164-6.136,3.866-7.509
				c-2.697-1.327-3.838-3.97-3.828-7.527l0.02-9.242c0.015-4.02-1.534-5.977-6.068-5.981
				C249.433,113.758,249.145,113.178,249.153,112.205"/>
		</g>
		<g>
			<path opacity="0.9" fill="#0F2D46" d="M138.249,4.545c-7.443-0.02-11.439,3.277-11.439,3.277l0.01-2.758
				c0,0-1.385-0.346-2.827-0.346c-1.52-0.008-2.895,0.332-2.895,0.332l-0.115,47.803c0,0,1.375,0.354,2.89,0.354
				c1.442,0.005,2.832-0.334,2.832-0.334l0.039-16.327c0.201,0.339,2.326,3.104,9.698,3.122c8.604,0.02,11.855-3.969,11.87-10.922
				l0.033-13.223C148.359,8.564,145.613,4.557,138.249,4.545z M142.594,28.734c-0.015,4.888-1.666,7.157-7.109,7.146
				c-6.539-0.02-8.732-2.289-8.723-7.185l0.039-17.02c0,0,2.62-3.365,9.573-3.346c4.822,0.012,6.263,2.288,6.254,7.181
				L142.594,28.734z"/>
			<path opacity="0.9" fill="#0F2D46" d="M168.221,9.303l0.009-4.137c0,0-1.377-0.347-2.824-0.352c-1.515,0-2.891,0.339-2.891,0.339
				l-0.081,34.027c0,0,1.37,0.347,2.89,0.354c1.375,0,2.83-0.339,2.83-0.339l0.058-24.385c0,0,3.659-6.258,12.269-6.23
				c0,0,0.279-0.828,0.279-1.932c0.004-1.168-0.27-2.002-0.27-2.002C172.365,4.627,168.221,9.303,168.221,9.303z"/>
			<path opacity="0.9" fill="#0F2D46" d="M205.858,4.711c-10.122-0.026-14.06,3.965-14.074,10.916l-0.033,13.223
				c-0.015,6.958,3.899,10.961,14.021,10.984c10.126,0.027,14.06-3.961,14.079-10.92l0.028-13.223
				C219.899,8.74,215.985,4.737,205.858,4.711z M214.134,28.907c-0.01,4.888-2.149,7.15-8.352,7.139
				c-6.199-0.013-8.329-2.296-8.314-7.185l0.029-13.223c0.014-4.893,2.148-7.155,8.352-7.143c6.203,0.019,8.329,2.295,8.319,7.181
				L214.134,28.907z"/>
			<path opacity="0.9" fill="#0F2D46" d="M142.512,61.988l-0.004,2.757c0,0-3.984-3.315-11.423-3.335
				c-7.367-0.02-10.132,3.97-10.15,10.928L120.9,85.561c-0.015,6.958,3.212,10.966,11.819,10.985
				c7.304,0.012,9.514-2.738,9.715-3.08l-0.009,5.919c-0.015,4.893-2.157,7.158-9.11,7.146c-6.611-0.02-11.016-1.682-11.016-1.682
				s-0.347,0.756-0.347,1.932c-0.005,1.101,0.342,1.922,0.342,1.922s4.192,1.598,11.012,1.616
				c10.812,0.026,14.816-3.962,14.836-10.919l0.087-37.401c0,0-1.375-0.347-2.891-0.353
				C143.824,61.646,142.512,61.988,142.512,61.988z M142.454,85.611c-0.01,4.893-2.219,7.162-8.759,7.143
				c-5.376-0.012-7.092-2.289-7.078-7.182l0.029-13.223c0.015-4.889,1.472-7.158,6.284-7.143c6.958,0.012,9.566,3.392,9.566,3.392
				L142.454,85.611z"/>
			<path opacity="0.9" fill="#0F2D46" d="M168.221,66.18l0.009-4.131c0,0-1.377-0.346-2.824-0.35
				c-1.52-0.008-2.891,0.338-2.891,0.338l-0.086,34.021c0,0,1.375,0.354,2.895,0.358c1.375,0,2.83-0.346,2.83-0.346l0.058-24.375
				c0,0,3.669-6.258,12.269-6.238c0,0,0.279-0.828,0.279-1.926c0.004-1.174-0.265-2-0.265-2
				C172.365,61.512,168.221,66.18,168.221,66.18z"/>
			<path opacity="0.9" fill="#0F2D46" d="M205.445,61.588c-9.987-0.023-13.026,3.758-13.046,10.369v0.828
				c0,0,1.308,0.346,2.756,0.354c1.375,0,2.688-0.34,2.688-0.34l0.005-0.826c0.01-4.477,1.87-6.607,7.588-6.593
				c5.861,0.012,7.78,2.217,7.771,6.771l-0.01,3.854l-9.03,0.942c-8.881,0.942-12.401,3.896-12.42,9.403v1.031
				c-0.01,5.932,2.596,9.312,9.478,9.324c7.789,0.019,11.935-3.277,11.935-3.277l-0.01,2.758c0,0,1.308,0.346,2.812,0.353
				c1.452,0,2.833-0.339,2.833-0.339l0.057-24.035C218.865,65.41,215.298,61.615,205.445,61.588z M213.163,89.574
				c0,0-2.761,3.367-9.862,3.348c-4.472-0.006-5.848-1.808-5.833-5.521v-1.031c0.005-3.239,1.87-5.162,7.655-5.773l8.063-0.942
				L213.163,89.574z"/>
			<path opacity="0.9" fill="#0F2D46" d="M291.699,119.086c-9.987-0.027-13.021,3.758-13.041,10.369v0.826
				c0,0,1.309,0.347,2.751,0.354c1.37,0,2.688-0.341,2.688-0.341l0.005-0.827c0.005-4.477,1.87-6.611,7.588-6.592
				c5.852,0.014,7.775,2.219,7.766,6.765l-0.01,3.861l-9.021,0.936c-8.891,0.95-12.415,3.892-12.43,9.407v1.034
				c-0.015,5.919,2.602,9.305,9.487,9.323c7.775,0.02,11.925-3.283,11.925-3.283l-0.005,2.757c0,0,1.303,0.354,2.822,0.358
				c1.442,0,2.818-0.339,2.818-0.339l0.058-24.04C305.119,122.908,301.547,119.105,291.699,119.086z M299.417,147.07
				c0,0-2.766,3.366-9.862,3.348c-4.477-0.013-5.847-1.801-5.838-5.527v-1.032c0.005-3.233,1.88-5.163,7.66-5.765l8.063-0.95
				L299.417,147.07z"/>
			<path opacity="0.9" fill="#0F2D46" d="M197.001,184.887l0.01-4.138c0,0-1.385-0.351-2.827-0.351
				c-1.515-0.008-2.899,0.338-2.899,0.338l-0.077,34.025c0,0,1.38,0.347,2.895,0.354c1.376,0.008,2.827-0.338,2.827-0.338
				l0.059-24.383c0,0,3.664-6.26,12.271-6.234c0,0,0.279-0.826,0.279-1.93c0.005-1.174-0.27-2.006-0.27-2.006
				C201.137,180.205,197.001,184.887,197.001,184.887z"/>
			<path opacity="0.9" fill="#0F2D46" d="M222.034,180.807l-0.086,34.032c0,0,1.375,0.347,2.894,0.347
				c1.371,0.007,2.823-0.34,2.823-0.34l0.082-34.024c0,0-1.376-0.341-2.823-0.347C223.409,180.475,222.034,180.807,222.034,180.807z
				"/>
			<path opacity="0.9" fill="#0F2D46" d="M222.063,167.041l-0.02,7.227c0,0,1.38,0.352,2.895,0.352c1.38,0,2.827-0.34,2.827-0.34
				l0.015-7.227c0,0-1.375-0.354-2.822-0.354C223.438,166.693,222.063,167.041,222.063,167.041z"/>
			<path opacity="0.9" fill="#0F2D46" d="M255.525,180.34c-9.982-0.025-13.021,3.756-13.041,10.367v0.828
				c0,0,1.309,0.354,2.756,0.354c1.37,0.007,2.683-0.34,2.683-0.34v-0.826c0.01-4.478,1.875-6.607,7.593-6.593
				c5.856,0.012,7.785,2.224,7.771,6.771l-0.01,3.854l-9.025,0.945c-8.891,0.941-12.411,3.896-12.42,9.404v1.034
				c-0.02,5.919,2.587,9.305,9.478,9.317c7.784,0.019,11.925-3.277,11.925-3.277l-0.005,2.758c0,0,1.303,0.346,2.822,0.353
				c1.442,0,2.827-0.339,2.827-0.339l0.053-24.035C268.95,184.16,265.378,180.365,255.525,180.34z M263.243,208.324
				c0,0-2.766,3.367-9.862,3.348c-4.473-0.014-5.843-1.803-5.838-5.521l0.005-1.031c0.01-3.239,1.87-5.162,7.66-5.766l8.059-0.95
				L263.243,208.324z"/>
		</g>
	</g>
</g>
<g id="linhas" display="none">
</g>
</svg>
